<?xml version="1.0" standalone="no"?><!DOCTYPE svg PUBLIC "-//W3C//DTD SVG 1.1//EN" "http://www.w3.org/Graphics/SVG/1.1/DTD/svg11.dtd"><svg t="1779955326044" class="icon" viewBox="0 0 1024 1024" version="1.1" xmlns="http://www.w3.org/2000/svg" p-id="2698" xmlns:xlink="http://www.w3.org/1999/xlink" width="200" height="200"><path d="M423.466667 111.786667l298.666666 725.333333a42.666667 42.666667 0 0 1-78.933333 32.426667L548.693333 640H219.306667l-94.506667 229.546667a42.666667 42.666667 0 0 1-50.986667 24.874666l-4.693333-1.621333a42.666667 42.666667 0 0 1-23.253333-55.722667l298.666666-725.333333c14.506667-35.2 64.426667-35.2 78.933334 0zM938.666667 768a42.666667 42.666667 0 0 1 0 85.333333h-85.333334a42.666667 42.666667 0 0 1 0-85.333333h85.333334z m0-213.333333a42.666667 42.666667 0 0 1 0 85.333333h-170.666667a42.666667 42.666667 0 0 1 0-85.333333h170.666667z m-425.130667 0L384 240 254.421333 554.666667h259.114667zM938.666667 341.333333a42.666667 42.666667 0 0 1 0 85.333334h-256a42.666667 42.666667 0 0 1 0-85.333334h256z m0-213.333333a42.666667 42.666667 0 0 1 0 85.333333h-341.333334a42.666667 42.666667 0 0 1 0-85.333333h341.333334z" p-id="2699"></path></svg>